<svg width="430" height="460" viewBox="0 0 430 460" fill="none" xmlns="http://www.w3.org/2000/svg">
<g clip-path="url(#clip0_0_77)">
<path d="M594.414 92.6202C578.999 83.9016 555.016 76.2908 528.676 75.8477C502.871 76.2777 479.344 83.5888 463.902 92.0858C457.95 91.2447 451.888 91.6305 446.091 93.2196C446.348 91.7223 446.955 90.3069 447.861 89.0884C445.358 89.4759 442.91 90.1629 440.57 91.1345V87.7591C439.177 87.8465 437.831 88.2957 436.664 89.0623C437.719 88.0067 439.463 81.5167 439.463 81.5167C435.97 81.418 432.55 82.5374 429.79 84.6835C430.173 82.9934 430.173 81.2389 429.79 79.5488C413.528 84.0189 409.556 97.5985 409.556 97.5985C407.995 97.2747 406.38 97.3284 404.843 97.7549C400.351 93.2588 384.988 92.972 384.988 94.5489C388.192 99.1051 389.724 104.63 389.323 110.188C389.323 110.188 383.477 111.491 382.123 110.188C380.769 108.884 383.608 103.111 383.608 103.111C377.163 103.322 370.934 105.485 365.744 109.314C363.418 106.039 360.465 103.259 357.057 101.136C353.648 99.0127 349.852 97.5888 345.889 96.9469C331.567 94.6141 324.275 99.9052 320.565 102.082C329.679 102.655 334.457 108.702 336.918 113.967H310.813V104.375H309.263V97.8591H306.256V96.178H309.263V94.4968H304.811V88.5411H292.871V76.9163H276.557V76.0171H276.232V74.7139C276.232 74.5341 276.16 74.3618 276.033 74.2347C275.906 74.1076 275.734 74.0362 275.555 74.0362H274.318C274.228 74.0344 274.138 74.0507 274.055 74.084C273.971 74.1173 273.895 74.1669 273.831 74.23C273.766 74.2931 273.715 74.3684 273.68 74.4515C273.646 74.5346 273.628 74.6238 273.628 74.7139V76.0171H273.315V76.9163H266.688V88.5411H254.762V94.4968H252.77V83.641C252.77 82.5764 252.347 81.5554 251.595 80.8027C250.843 80.0499 249.823 79.627 248.759 79.627C247.696 79.627 246.676 80.0499 245.924 80.8027C245.172 81.5554 244.749 82.5764 244.749 83.641V74.766C244.752 71.7509 243.688 68.8323 241.745 66.5279C239.803 64.2234 237.108 62.6819 234.138 62.1768V57.3549C234.135 56.8835 233.978 56.4259 233.691 56.0518C233.405 55.6778 233.004 55.4077 232.55 55.2828L231.977 45.2871L231.417 55.2828C230.963 55.4077 230.562 55.6778 230.275 56.0518C229.988 56.4259 229.831 56.8835 229.828 57.3549V62.1768C226.857 62.6816 224.161 64.2226 222.216 66.5268C220.272 68.831 219.205 71.7497 219.204 74.766V83.641C219.203 82.8474 218.966 82.0721 218.525 81.4129C218.083 80.7538 217.456 80.2405 216.723 79.9379C215.99 79.6352 215.184 79.5569 214.407 79.7126C213.629 79.8684 212.916 80.2513 212.356 80.813H211.718V76.8251L212.837 76.5644V72.7981H211.718V65.5001H179.076V63.2716H178.412V60.5348H179.076V57.785H178.412V55.0352H179.076V52.2984H178.412V49.5486H179.076V46.8118H180.17V42.9022H177.735V34.9785H174.936L174.116 27.055H173.126L170.939 22.1157H170.679V9.34413H170.106L169.819 0.0651855L169.533 9.34413H168.96V22.1157H168.699L166.499 27.055H165.523L164.689 34.9785H161.903V42.9022H159.468V46.8118H160.549V49.5486H161.226V52.2984H160.549V55.0352H161.226V57.785H160.549V60.5348H161.226V63.2716H160.549V66.0214H161.226V68.7712H160.549V71.5079H161.226V74.2577H160.549V77.0075H161.226V79.7443H160.549V82.4941H161.226V83.4585H157.606V61.043H155.094V59.4661H156.304V57.9674H145.98V59.2706H147.776V61.0039H145.172V89.336H143.18V93.8061H140.394V76.7208L136.918 76.8511V30.5346L130.707 27.8369V24.7613H129.848V27.8369L115.083 29.4659V60.209H104.459V96.3474H102.701V28.5797L101.204 27.7978V20.9428L93.3007 17.9194L79.5255 19.4572V27.3808H77.4683V57.003H75.4242V52.8979H67.482V48.7145H60.4382V27.4199L56.5322 29.7266L55.764 11.4814L55.0609 30.5997L33.1483 43.632L33.9425 78.0632H29.8151V44.7006H29.1641V40.8561H28.6173V38.5103H27.8621V27.1723L27.3023 32.7631H25.4404V35.0828H22.0943V38.5103H18.9304V40.9213H12.8761V44.7527H11.0143V65.5392H-4.76598L-5.1696 21.9594L-5.2998 35.4608L-10.5078 33.7796L-10.625 21.2686L-11.0416 65.5783H-18.5932V66.3863H-17.6558V71.5079H-31.3919V35.4868H-31.0013C-30.4163 35.487 -29.8544 35.258 -29.4359 34.8488C-29.0174 34.4397 -28.7754 33.8828 -28.7618 33.2974V29.7396H-29.53V25.4129C-29.53 25.2167 -29.5688 25.0224 -29.6442 24.8413C-29.7196 24.6602 -29.8301 24.4958 -29.9693 24.3577C-30.1086 24.2196 -30.2737 24.1104 -30.4553 24.0365C-30.6369 23.9627 -30.8313 23.9255 -31.0273 23.9272H-31.3919V22.8716C-31.3919 22.4603 -31.5551 22.0658 -31.8457 21.775C-32.1362 21.4842 -32.5303 21.3208 -32.9413 21.3208C-33.3522 21.3208 -33.7463 21.4842 -34.0368 21.775C-34.3274 22.0658 -34.4906 22.4603 -34.4906 22.8716V23.9011H-34.8682C-35.0631 23.9011 -35.2561 23.9396 -35.4362 24.0142C-35.6163 24.0889 -35.7799 24.1983 -35.9178 24.3363C-36.0556 24.4743 -36.1649 24.638 -36.2395 24.8183C-36.3141 24.9985 -36.3525 25.1917 -36.3525 25.3868V29.7135H-37.1337V33.2974C-37.1337 33.5929 -37.0754 33.8854 -36.962 34.1582C-36.8486 34.431 -36.6825 34.6787 -36.4732 34.887C-36.2639 35.0954 -36.0154 35.2602 -35.7422 35.3721C-35.469 35.4839 -35.1764 35.5407 -34.8812 35.5389H-34.4906V71.4558H-39.6986V71.2603H-38.7612V66.1386H-51L-50.349 479H600V80.7478L594.414 92.6202ZM-5.57322 65.474H-10.2474V61.5643L-5.52114 63.0891L-5.57322 65.474ZM-5.57322 62.3332L-10.3125 60.8085L-10.3776 54.8136L-5.52114 56.3775L-5.57322 62.3332ZM-5.50812 55.5956L-10.3776 54.0317V48.0369L-5.43 49.6529L-5.50812 55.5956ZM-5.43 48.9361L-10.4167 47.3201L-10.4818 41.3383L-5.3649 42.9803L-5.43 48.9361ZM-5.43 42.1984L-10.5469 40.5433V34.5615L-5.33886 36.2427L-5.43 42.1984ZM253.316 97.807H252.77V96.1258H253.316V97.807ZM584.024 89.2709C585.431 89.8964 586.798 90.5741 588.113 91.1866V101.065H585.678C585.149 100.448 584.589 99.8487 583.998 99.2666L584.024 89.2709ZM578.218 86.8729C579.689 87.4464 581.134 88.0198 582.527 88.6323V97.7549C581.159 96.5649 579.72 95.4595 578.218 94.4447V86.8729ZM582.709 101.065H575.9V94.8226C578.476 96.5425 580.772 98.6478 582.709 101.065ZM572.215 84.7617C573.752 85.27 575.262 85.8043 576.733 86.3517V93.5194C575.314 92.6332 573.804 91.7861 572.215 90.9129V84.7617ZM575.457 94.4968V101.013H574.702V93.9625L575.457 94.4968ZM571.877 92.3204C572.697 92.7765 573.478 93.2587 574.246 93.7279V101.065H563.206V88.4107C565.539 89.2463 567.825 90.2078 570.054 91.2909L571.07 91.8122L571.877 92.3204ZM566.031 82.8199C567.632 83.276 569.195 83.7582 570.731 84.2535V90.1701C569.234 89.4533 567.658 88.7757 566.031 88.124V82.8199ZM560.224 81.3082C561.682 81.66 563.127 82.0249 564.534 82.4159V87.5506C563.14 87.0293 561.708 86.5211 560.224 86.0519V81.3082ZM562.763 88.2283V101.065H562.008V88.0328L562.763 88.2283ZM561.552 87.7982V101.065H550.524V84.7617C554.26 85.532 557.943 86.5374 561.552 87.7722V87.7982ZM554.287 79.9789C555.797 80.2786 557.268 80.5914 558.74 80.9302V85.5436C557.294 85.1006 555.81 84.7096 554.287 84.3317V79.9789ZM549.079 79.0536C550.381 79.2491 551.605 79.4706 552.855 79.7052V83.9798C551.618 83.6931 550.355 83.4324 549.079 83.1848V79.0536ZM550.12 84.6444V101.065H549.365V84.5141L550.12 84.6444ZM544.287 78.389L547.595 78.8321V82.9111C546.501 82.7157 545.394 82.5332 544.287 82.3638V78.389ZM548.91 84.3968V101.065H537.882V82.8199C541.644 83.2239 545.316 83.7452 548.857 84.4229L548.91 84.3968ZM539.405 77.8807C540.538 77.985 541.67 78.0892 542.79 78.2195V82.1292C541.67 81.9728 540.538 81.8425 539.405 81.7252V77.8807ZM534.197 77.5158C535.499 77.5809 536.697 77.6591 537.934 77.7634V81.6731C536.71 81.5558 535.46 81.4646 534.197 81.3864V77.5158ZM537.452 82.8199V101.065H536.697V82.8199H537.452ZM529.64 77.3724C530.682 77.3724 531.723 77.3724 532.752 77.3724V81.1779C531.723 81.1779 530.682 81.0866 529.64 81.0606V77.3724ZM536.293 82.7157V100.961H521.177V82.7157C523.638 82.5332 526.138 82.4029 528.676 82.3508C531.215 82.2986 533.715 82.5462 536.202 82.7287L536.293 82.7157ZM524.836 77.4376C525.929 77.4376 527.049 77.4376 528.156 77.4376V81.1909C527.036 81.1909 525.929 81.1909 524.836 81.3082V77.4376ZM519.628 77.7634C520.864 77.6591 522.101 77.5809 523.364 77.5158V81.3212C522.062 81.3994 520.851 81.4906 519.628 81.6079V77.7634ZM520.864 82.7548V101H520.109V82.8199L520.864 82.7548ZM514.732 78.2195C515.865 78.0892 516.997 77.985 518.13 77.8807V81.7904C516.984 81.9077 515.852 82.038 514.732 82.1944V78.2195ZM509.941 78.8451L513.248 78.402V82.3117C512.128 82.4811 511.034 82.6635 509.941 82.859V78.8451ZM508.639 84.4099C512.167 83.7322 515.865 83.2109 519.68 82.859V101.065H508.639V84.4099ZM504.733 79.7182C506.035 79.4837 507.233 79.2621 508.508 79.0666V83.1978C507.206 83.4455 505.97 83.7061 504.733 83.9928V79.7182ZM508.222 84.5011V101.065H507.467V84.6705L508.222 84.5011ZM507.024 84.7487V101.065H495.84V87.7722C499.441 86.5385 503.115 85.533 506.842 84.7617L507.024 84.7487ZM498.796 80.9433C500.267 80.6044 501.738 80.2917 503.248 79.9919V84.3447C501.725 84.7226 500.241 85.1136 498.796 85.5567V80.9433ZM493.002 82.3768C494.408 81.9859 495.853 81.6209 497.311 81.2691V86.0128C495.827 86.482 494.395 86.9902 493.002 87.5115V82.3768ZM495.528 87.9155V100.948H494.538V88.1371L495.528 87.9155ZM486.804 84.2144C488.341 83.7191 489.903 83.2369 491.504 82.7808V88.0849C489.877 88.7365 488.301 89.3882 486.804 90.131V84.2144ZM486.505 91.7991L487.52 91.2778C489.736 90.1783 492.009 89.1995 494.33 88.3456V101.065H483.289V93.7279C484.044 93.2587 484.838 92.7765 485.658 92.3204L486.505 91.7991ZM480.802 86.2865C482.273 85.7391 483.784 85.2048 485.32 84.6966V90.8999C483.731 91.7209 482.221 92.568 480.802 93.5063V86.2865ZM482.833 93.9494V101.065H482.078V94.5489L482.833 93.9494ZM475.021 88.6193C476.427 88.0067 477.872 87.4333 479.344 86.8599V94.4577C477.837 95.4725 476.394 96.5779 475.021 97.7679V88.6193ZM481.661 94.7575V101.065H474.852C476.742 98.6403 478.99 96.5177 481.518 94.7705L481.661 94.7575ZM469.448 91.1736C470.75 90.522 472.131 89.8704 473.537 89.2578V99.2015C472.938 99.7879 472.391 100.387 471.857 101H469.448V91.1736ZM462.938 94.588C464.514 93.6888 466.167 92.7896 467.899 91.9816V101.104H462.938V94.588ZM461.454 95.6176V101.065H457.548C458.657 99.16 459.911 97.3432 461.298 95.6306L461.454 95.6176ZM496.074 116.274C493.353 116 487.676 114.723 486.023 114.723C484.161 114.723 481.427 116.339 478.211 116.339C475.47 116.352 472.757 115.779 470.256 114.658C469.554 114.27 468.88 113.835 468.238 113.354C468.055 113.198 467.86 113.068 467.704 112.911C467.44 112.648 467.148 112.417 466.831 112.221C464.766 110.157 462.053 108.868 459.15 108.572C453.942 107.855 455.244 105.457 455.244 105.457C455.608 104.623 455.999 103.815 456.402 103.046H496.048L496.074 116.274ZM591.055 104.545V109.432H555.862C554.981 109.433 554.118 109.687 553.375 110.162C545.889 115.114 530.695 111.465 528.924 112.208C527.153 112.95 525.2 112.546 522.974 112.638C520.747 112.729 520.266 114.723 518.039 114.254C515.813 113.785 515.982 114.997 511.334 115.374C508.568 115.534 505.793 115.368 503.066 114.879V103.085H590.886L591.055 104.545ZM591.133 99.9443L591.055 100.114V101.026H589.753V91.9034C591.172 92.6202 592.527 93.363 593.855 94.0928L591.133 99.9443Z" fill="#101010"/>
</g>
<defs>
<clipPath id="clip0_0_77">
<rect width="651" height="479" fill="white" transform="translate(-51)"/>
</clipPath>
</defs>
</svg>
